HIERARCHY
ROOT Hips
{
	OFFSET -3.958830 18.904000 13.208200
	CHANNELS 6 Xposition Yposition Zposition Zrotation Yrotation Xrotation 
	JOINT LHipJoint
	{
		OFFSET 0.000000 0.000000 0.000000
		CHANNELS 3 Zrotation Yrotation Xrotation
		JOINT LeftUpLeg
		{
			OFFSET 1.800000 -1.400000 0.085000
			CHANNELS 3 Zrotation Yrotation Xrotation
			JOINT LeftLeg
			{
				OFFSET 2.215000 -6.000000 0.000000
				CHANNELS 3 Zrotation Yrotation Xrotation
				JOINT LeftFoot
				{
					OFFSET 2.500000 -6.900000 0.000000
					CHANNELS 3 Zrotation Yrotation Xrotation
					JOINT LeftToeBase
					{
						OFFSET 0.200000 -0.500000 1.950000
						CHANNELS 3 Zrotation Yrotation Xrotation
						End Site
						{
							OFFSET 0.000000 0.000000 0.000000
						}
					}
				}
			}
		}
	}
	JOINT RHipJoint
	{
		OFFSET 0.000000 0.000000 0.000000
		CHANNELS 3 Zrotation Yrotation Xrotation
		JOINT RightUpLeg
		{
			OFFSET -1.800000 -1.400000 0.085000
			CHANNELS 3 Zrotation Yrotation Xrotation
			JOINT RightLeg
			{
				OFFSET -2.215000 -6.000000 0.000000
				CHANNELS 3 Zrotation Yrotation Xrotation
				JOINT RightFoot
				{
					OFFSET -2.500000 -6.900000 0.000000
					CHANNELS 3 Zrotation Yrotation Xrotation
					JOINT RightToeBase
					{
						OFFSET -0.200000 -0.500000 1.950000
						CHANNELS 3 Zrotation Yrotation Xrotation
						End Site
						{
							OFFSET 0.000000 0.000000 0.000000
						}
					}
				}
			}
		}
	}
	JOINT LowerBack
	{
		OFFSET 0.000000 0.000000 0.000000
		CHANNELS 3 Zrotation Yrotation Xrotation
		JOINT Spine
		{
			OFFSET -0.087000 1.940000 -0.288900
			CHANNELS 3 Zrotation Yrotation Xrotation
			JOINT Spine1
			{
				OFFSET 0.000000 1.950000 0.060000
				CHANNELS 3 Zrotation Yrotation Xrotation
				JOINT Neck
				{
					OFFSET 0.000000 0.000000 0.000000
					CHANNELS 3 Zrotation Yrotation Xrotation
					JOINT Neck1
					{
						OFFSET 0.000000 1.600000 0.340000
						CHANNELS 3 Zrotation Yrotation Xrotation
						JOINT Head
						{
							OFFSET 0.000000 1.667000 -0.240000
							CHANNELS 3 Zrotation Yrotation Xrotation
							End Site
							{
								OFFSET 0.000000 0.000000 0.000000
							}
						}
					}
				}
				JOINT LeftShoulder
				{
					OFFSET 0.000000 0.000000 0.000000
					CHANNELS 3 Zrotation Yrotation Xrotation
					JOINT LeftArm
					{
						OFFSET 2.700000 1.550000 -0.730000
						CHANNELS 3 Zrotation Yrotation Xrotation
						JOINT LeftForeArm
						{
							OFFSET 5.450000 0.000000 0.000000
							CHANNELS 3 Zrotation Yrotation Xrotation
							JOINT LeftHand
							{
								OFFSET 3.450000 0.000000 0.000000
								CHANNELS 3 Zrotation Yrotation Xrotation
								JOINT LeftHandIndex1
								{
									OFFSET 0.750000 0.000000 0.000000
									CHANNELS 3 Zrotation Yrotation Xrotation
									End Site
									{
										OFFSET 0.000000 0.000000 0.000000
									}
								}
							}
						}
					}
				}
				JOINT RightShoulder
				{
					OFFSET 0.000000 0.000000 0.000000
					CHANNELS 3 Zrotation Yrotation Xrotation
					JOINT RightArm
					{
						OFFSET -2.700000 1.550000 -0.730000
						CHANNELS 3 Zrotation Yrotation Xrotation
						JOINT RightForeArm
						{
							OFFSET -5.450000 0.000000 0.000000
							CHANNELS 3 Zrotation Yrotation Xrotation
							JOINT RightHand
							{
								OFFSET -3.450000 0.000000 0.000000
								CHANNELS 3 Zrotation Yrotation Xrotation
								JOINT RightHandIndex1
								{
									OFFSET -0.750000 0.000000 0.000000
									CHANNELS 3 Zrotation Yrotation Xrotation
									End Site
									{
										OFFSET 0.000000 0.000000 0.000000
									}
								}
							}
						}
					}
				}
			}
		}
	}
}
MOTION
Frames: 13
Frame Time: 0.016667
-0.269740 15.010080 -1.499000 -3.113651 -11.319710 -4.576654 -15.415255 12.927678 0.890731 17.233426 5.103721 -20.490405 17.865006 5.215356 45.446581 -0.330836 8.444439 1.674319 0.719730 -0.092970 0.671380 18.334726 -8.447699 6.482592 -45.967418 9.345070 -16.157921 55.253016 -7.637945 2.143792 -1.497480 -7.894811 1.819317 0.096700 0.217030 0.264160 -3.238947 -1.774517 -8.766286 1.004317 6.685795 20.011402 -2.015596 7.266437 3.145796 1.757091 -2.931693 -9.650690 -6.439474 5.056021 40.977918 -2.995490 2.526530 -17.326380 -30.955003 -8.661175 5.211810 -28.289725 11.697139 -0.812161 1.215441 3.252270 -1.418037 -3.791923 2.537032 1.116630 0.036810 -0.027340 0.333310 27.875256 16.594001 5.010119 41.409942 16.442237 1.202258 99.637903 55.420233 51.688540 1.861874 -1.576004 -0.463090 0.442480 -0.019230 -0.595530 
-0.325790 14.995570 -1.484160 -2.784895 -10.885314 -5.083704 -15.419596 12.964924 0.799653 16.999453 5.224815 -19.785273 18.756125 4.694615 44.735079 -0.352344 8.357410 1.705120 0.672530 -0.154870 0.647280 18.330793 -8.430695 6.575494 -46.522113 9.457259 -14.988811 56.361767 -7.323374 1.277470 -1.509792 -7.936221 1.798410 0.068390 0.226930 0.259430 -3.214657 -1.806216 -8.771935 0.455697 6.927654 19.884166 -2.095537 7.397584 3.387233 1.714204 -3.019776 -10.104985 -6.761398 5.397415 42.375854 -2.879530 2.529530 -16.335690 -31.200735 -9.216985 5.454181 -27.301986 11.793424 -0.436851 2.674125 4.781162 -1.253791 -3.830111 2.516625 1.125320 0.037730 -0.041990 0.307590 28.292099 17.252426 5.617445 41.234901 15.863798 0.696646 102.105418 56.834469 54.698547 1.903018 -1.487594 -0.482840 0.442450 0.019750 -0.603490 
-0.417550 14.987840 -1.449350 -2.968548 -9.317790 -5.042694 -15.378051 12.888687 0.748582 17.688878 5.205857 -19.446160 19.029728 4.382640 43.102179 -0.488501 8.220744 1.762814 0.578240 -0.303840 0.611120 18.372228 -8.457601 6.630634 -46.188156 9.336161 -13.101967 57.495705 -6.813616 -0.261495 -1.491254 -7.931775 1.805049 0.030130 0.294940 0.235040 -3.332288 -1.646365 -8.773600 0.859214 6.643304 18.885314 -2.653732 7.161126 3.862483 1.572733 -3.586231 -10.376588 -7.771541 6.009387 43.144067 -2.518820 2.276150 -15.328700 -30.658492 -9.231778 5.401000 -26.530488 11.421196 -0.114941 4.793849 5.979320 -1.072571 -3.927788 2.420260 1.171020 0.061940 -0.099770 0.266910 28.064627 17.492145 6.189771 42.347289 15.522271 0.666099 104.990634 57.873619 57.979068 1.910616 -1.344079 -0.581160 0.504310 0.109310 -0.638970 
-0.524590 15.009550 -1.429100 -2.849780 -7.560225 -4.910228 -15.339621 12.785758 0.713787 17.998386 4.956635 -19.494887 19.107129 4.075612 41.489184 -0.572013 7.985887 1.857737 0.550220 -0.336640 0.565880 18.424560 -8.403907 6.715244 -45.870480 9.055014 -11.240572 58.524519 -5.859478 -2.332271 -1.500609 -7.869429 1.838494 0.031920 0.345910 0.202860 -3.465019 -1.602387 -8.763695 0.771689 5.975378 18.226667 -2.918405 6.461209 4.178674 0.890991 -5.423505 -10.402816 -11.312372 7.588789 43.257461 -0.472740 1.381920 -15.657030 -29.037059 -8.319407 5.106005 -27.022895 10.846486 -0.264675 7.413632 5.648757 -0.857185 -3.948081 2.389927 1.189990 0.049740 -0.124340 0.273570 27.851948 17.722717 6.472954 42.924448 16.100703 1.284041 107.856488 58.562380 61.563048 1.926235 -1.238212 -0.624360 0.569720 0.143930 -0.622240 
-0.647630 15.059680 -1.414050 -2.878323 -5.732695 -4.223075 -15.308654 12.689805 0.665782 18.357194 4.783621 -19.466438 18.499398 3.975692 38.505915 -0.675130 7.528089 2.051045 0.521680 -0.352830 0.470290 18.462543 -8.402392 6.728187 -44.802047 8.760305 -10.252085 58.514958 -5.108536 -3.832146 -1.478399 -7.816600 1.890081 0.038740 0.443920 0.194030 -3.571530 -1.495040 -8.683549 0.368708 5.389939 16.744160 -3.047534 5.773445 4.587031 0.240926 -6.770530 -10.289299 -13.765624 8.746884 42.437360 1.649050 0.363340 -14.510690 -27.367890 -7.492741 4.972333 -28.058622 10.481245 -0.347371 9.916375 6.413609 -0.538931 -4.004625 2.401565 1.160210 0.085150 -0.175110 0.317140 27.558191 17.738529 6.463722 43.377170 17.386143 2.500444 109.430765 59.667294 64.662326 1.922284 -1.148220 -0.647310 0.620750 0.173580 -0.573830 
-0.766710 15.112500 -1.400990 -3.397933 -3.854660 -2.876191 -15.265779 12.499145 0.671021 19.171262 4.676992 -20.199258 17.651168 4.114216 35.636899 -0.782410 7.151329 2.212664 0.490070 -0.391150 0.425570 18.518641 -8.468252 6.622428 -42.809621 8.396429 -10.300139 58.190901 -4.879958 -4.419611 -1.412948 -7.781626 1.918373 0.054060 0.536380 0.189850 -3.737297 -1.142867 -8.534121 0.555605 4.858231 14.383074 -3.915856 5.160232 5.198870 0.225851 -6.935532 -9.468179 -13.298914 8.892717 40.166342 1.482060 0.146290 -11.920550 -25.404073 -5.896585 4.462931 -27.953419 9.870018 -0.232672 9.581965 6.592821 -0.563438 -4.102597 2.405443 1.084630 0.160970 -0.261430 0.334580 25.564833 16.150590 5.555324 44.895436 19.836205 4.786216 112.075781 61.107091 69.480800 1.907102 -1.056749 -0.680320 0.638990 0.195420 -0.555460 
-0.891980 15.206160 -1.399230 -3.716712 -2.524061 -1.995117 -15.235612 12.424132 0.686079 20.064534 4.648712 -20.104690 16.434074 4.327104 32.583246 -0.864916 6.747823 2.393953 0.470150 -0.396990 0.371370 18.529078 -8.591479 6.441920 -40.293743 8.097773 -10.390881 56.742961 -4.943531 -4.300984 -1.351233 -7.725420 1.964562 0.074260 0.616700 0.171360 -3.812529 -0.910917 -8.378777 0.366171 4.819944 12.904905 -4.284218 5.035115 5.466631 0.084039 -7.288765 -8.842222 -13.609659 8.881684 38.813006 1.796320 -0.613240 -10.350980 -23.593133 -4.407126 3.797548 -28.048696 8.706271 -0.226744 10.607164 6.415474 -0.478690 -4.168419 2.397586 1.023630 0.213190 -0.323330 0.367260 23.983967 14.914190 5.086533 45.023615 21.132668 6.179729 118.074442 61.578671 77.265122 1.824404 -1.000399 -0.704400 0.677150 0.202210 -0.523240 
-1.010820 15.317760 -1.398060 -3.774211 -0.975959 -1.637372 -15.211099 12.406550 0.739367 20.548765 4.481559 -19.962461 15.139523 4.509177 30.475363 -0.878303 6.399773 2.522821 0.504830 -0.326120 0.355750 18.515083 -8.724030 6.245218 -37.601767 7.742906 -9.866651 54.648947 -4.879122 -4.363314 -1.318269 -7.623874 2.016899 0.102250 0.616960 0.171940 -3.839434 -0.798890 -8.276781 -0.043472 4.845516 12.299965 -4.605828 5.021608 5.792855 -0.085068 -7.514348 -8.646952 -14.013946 8.626980 38.261760 2.131090 -1.273200 -10.104070 -21.838523 -3.799322 3.561508 -27.212459 7.804854 -0.211338 9.959186 6.067079 -0.582263 -4.167121 2.430449 0.967670 0.221680 -0.326860 0.394980 22.540762 14.455485 4.906386 44.548451 21.848746 6.980981 121.770026 61.147611 81.461857 1.766308 -1.070626 -0.660670 0.662300 0.168230 -0.487340 
-1.117650 15.438330 -1.414320 -4.082066 0.419032 -1.564199 -15.191900 12.448945 0.873390 21.175965 4.391242 -20.085101 13.493618 4.912402 29.124578 -0.928130 6.252870 2.567717 0.534780 -0.295590 0.353760 18.479738 -8.899673 5.933676 -34.412531 7.436176 -9.639218 52.138298 -5.344270 -3.379838 -1.281585 -7.497152 2.054958 0.125330 0.622780 0.191890 -3.835075 -0.784622 -8.192484 -0.111862 4.686920 12.456731 -4.793241 4.887001 6.184150 -0.232241 -8.006767 -8.428554 -14.951525 8.552089 37.512805 2.473340 -2.005220 -11.052280 -20.407703 -3.210899 3.318899 -27.068651 7.056064 -0.185953 10.409050 6.151993 -0.584322 -4.178906 2.452548 0.968700 0.219290 -0.322170 0.411690 21.339630 14.225446 4.671985 43.557201 23.030856 7.535484 127.331556 61.260536 89.069708 1.657908 -1.065886 -0.649180 0.665410 0.166250 -0.476120 
-1.229650 15.563070 -1.433960 -3.993322 2.623988 -1.404510 -15.270345 12.554817 1.041929 20.976114 3.925929 -20.897718 12.348491 5.045488 28.123973 -0.995198 6.130795 2.614587 0.536850 -0.291990 0.343300 18.360338 -9.015084 5.547158 -31.269945 6.583105 -9.066919 49.062880 -5.855127 -2.611022 -1.195273 -7.330896 2.123559 0.152610 0.655550 0.187260 -3.568570 -1.060349 -8.036733 -2.127752 4.805107 12.105637 -3.505613 4.800340 6.480539 -0.442387 -7.721946 -7.669554 -14.579639 7.862238 37.296287 2.519970 -2.950030 -10.690860 -19.245622 -2.014462 2.552301 -26.455430 5.195908 -0.015265 9.951740 5.757990 -0.764472 -4.222808 2.436227 0.944770 0.247220 -0.355240 0.415950 20.656105 12.851689 3.981701 41.474297 23.410874 8.423464 134.704320 59.990500 98.423710 1.502908 -1.194303 -0.667520 0.687010 0.177460 -0.472470 
-1.320760 15.674880 -1.443970 -4.108759 4.898753 -1.065134 -15.311512 12.647268 1.203418 20.293740 3.270710 -21.840749 11.628857 4.975428 27.440863 -1.057097 6.016227 2.689462 0.542440 -0.294230 0.348580 18.280559 -9.207611 5.161131 -28.157853 5.670309 -8.916965 45.854033 -6.434739 -1.565819 -1.096160 -7.126284 2.220899 0.181260 0.709250 0.177470 -3.417349 -1.186328 -7.860392 -3.322261 4.605361 11.404988 -2.925728 4.426754 6.802440 -0.326439 -7.045241 -6.946662 -13.180429 7.200770 36.583635 2.199340 -3.290780 -9.615540 -18.441179 -0.964056 2.006250 -25.488777 4.399712 -0.059940 9.870717 3.282679 -1.054666 -4.243511 2.423698 0.916400 0.291800 -0.398070 0.439300 19.666437 11.209858 3.231436 39.873319 23.986779 9.475875 140.399683 59.290375 106.611050 1.373072 -1.301049 -0.702910 0.721210 0.169090 -0.472160 
-1.406130 15.784920 -1.447290 -4.084842 6.077493 -0.790606 -15.343314 12.805545 1.306027 18.971086 2.738869 -22.331331 11.328076 4.866739 27.553348 -1.111418 5.953025 2.728953 0.544640 -0.283480 0.355390 18.210186 -9.435132 4.805746 -25.548074 5.093363 -9.475307 42.767405 -7.185318 0.400763 -0.985985 -6.905025 2.310981 0.215520 0.735230 0.153710 -3.291164 -1.299563 -7.652754 -4.480949 4.626595 10.734033 -2.473672 4.323151 7.315486 -0.154960 -6.470225 -6.485722 -12.030858 6.708686 35.793790 1.779060 -3.348960 -9.222110 -17.482239 -0.240773 1.796979 -24.827884 4.423647 -0.259014 9.334055 0.146173 -1.347503 -4.240736 2.410160 0.892310 0.321220 -0.431170 0.440590 18.412173 10.017638 2.590402 38.437336 24.706924 10.362918 144.586778 58.552055 112.602725 1.281955 -1.387483 -0.734700 0.751550 0.167710 -0.479700 
-1.497390 15.910310 -1.450320 -3.958530 6.694148 -1.108637 -15.395982 13.074679 1.393633 17.688663 2.488051 -21.955578 10.531857 4.993792 27.829566 -1.149315 5.957896 2.729067 0.537550 -0.300070 0.347980 18.104198 -9.680923 4.436201 -22.662868 4.663287 -9.345961 38.885976 -7.693704 2.403185 -0.882253 -6.602898 2.425989 0.213450 0.744160 0.169800 -3.082424 -1.553396 -7.464643 -6.123838 5.047960 10.731669 -1.392216 4.710449 8.035816 -0.138164 -6.038274 -6.469238 -11.480713 6.045259 36.040714 1.620350 -3.712590 -9.626050 -17.184882 -0.504011 2.055521 -24.165873 5.171217 -0.608277 8.629828 -4.331932 -1.669680 -4.199038 2.429101 0.908760 0.330880 -0.432920 0.434670 18.152913 10.197914 2.379055 36.044225 24.678854 9.456350 145.214334 59.120541 114.448870 1.245302 -1.354156 -0.743770 0.755580 0.189770 -0.488490 
